<svg xmlns="http://www.w3.org/2000/svg" viewBox="0 0 1600 900" width="1600" height="900">
<rect width="1600" height="900" fill="#ffffff"/>
<g stroke="#e2e5ea" stroke-width="1" fill="none">
<line x1="-97" y1="0" x2="-126" y2="900"/>
<line x1="-46" y1="0" x2="-61" y2="900"/>
<line x1="-1" y1="0" x2="-23" y2="900"/>
<line x1="41" y1="0" x2="54" y2="900"/>
<line x1="86" y1="0" x2="93" y2="900"/>
<line x1="143" y1="0" x2="115" y2="900"/>
<line x1="176" y1="0" x2="151" y2="900"/>
<line x1="228" y1="0" x2="212" y2="900"/>
<line x1="284" y1="0" x2="292" y2="900"/>
<line x1="314" y1="0" x2="319" y2="900"/>
<line x1="366" y1="0" x2="381" y2="900"/>
<line x1="419" y1="0" x2="403" y2="900"/>
<line x1="466" y1="0" x2="473" y2="900"/>
<line x1="506" y1="0" x2="527" y2="900"/>
<line x1="544" y1="0" x2="562" y2="900"/>
<line x1="595" y1="0" x2="609" y2="900"/>
<line x1="649" y1="0" x2="640" y2="900"/>
<line x1="690" y1="0" x2="669" y2="900"/>
<line x1="734" y1="0" x2="752" y2="900"/>
<line x1="784" y1="0" x2="760" y2="900"/>
<line x1="822" y1="0" x2="816" y2="900"/>
<line x1="869" y1="0" x2="861" y2="900"/>
<line x1="923" y1="0" x2="931" y2="900"/>
<line x1="966" y1="0" x2="987" y2="900"/>
<line x1="1005" y1="0" x2="1021" y2="900"/>
<line x1="1064" y1="0" x2="1068" y2="900"/>
<line x1="1099" y1="0" x2="1128" y2="900"/>
<line x1="1154" y1="0" x2="1129" y2="900"/>
<line x1="1197" y1="0" x2="1220" y2="900"/>
<line x1="1245" y1="0" x2="1251" y2="900"/>
<line x1="1286" y1="0" x2="1301" y2="900"/>
<line x1="1328" y1="0" x2="1300" y2="900"/>
<line x1="1379" y1="0" x2="1398" y2="900"/>
<line x1="1427" y1="0" x2="1402" y2="900"/>
<line x1="1471" y1="0" x2="1496" y2="900"/>
<line x1="1513" y1="0" x2="1507" y2="900"/>
<line x1="1564" y1="0" x2="1563" y2="900"/>
<line x1="1613" y1="0" x2="1593" y2="900"/>
<line x1="0" y1="-89" x2="1600" y2="-97"/>
<line x1="0" y1="-48" x2="1600" y2="-36"/>
<line x1="0" y1="0" x2="1600" y2="14"/>
<line x1="0" y1="40" x2="1600" y2="48"/>
<line x1="0" y1="89" x2="1600" y2="93"/>
<line x1="0" y1="137" x2="1600" y2="117"/>
<line x1="0" y1="190" x2="1600" y2="184"/>
<line x1="0" y1="230" x2="1600" y2="259"/>
<line x1="0" y1="275" x2="1600" y2="288"/>
<line x1="0" y1="324" x2="1600" y2="347"/>
<line x1="0" y1="361" x2="1600" y2="345"/>
<line x1="0" y1="407" x2="1600" y2="428"/>
<line x1="0" y1="462" x2="1600" y2="457"/>
<line x1="0" y1="506" x2="1600" y2="480"/>
<line x1="0" y1="550" x2="1600" y2="578"/>
<line x1="0" y1="600" x2="1600" y2="583"/>
<line x1="0" y1="651" x2="1600" y2="646"/>
<line x1="0" y1="696" x2="1600" y2="675"/>
<line x1="0" y1="736" x2="1600" y2="714"/>
<line x1="0" y1="781" x2="1600" y2="798"/>
<line x1="0" y1="828" x2="1600" y2="845"/>
<line x1="0" y1="879" x2="1600" y2="906"/>
<line x1="0" y1="924" x2="1600" y2="917"/>
</g>
<g stroke="#c4cad4" stroke-width="2.4" fill="none" stroke-linecap="round">
<line x1="820" y1="430" x2="2105" y2="624"/>
<line x1="820" y1="430" x2="1894" y2="1163"/>
<line x1="820" y1="430" x2="1470" y2="1556"/>
<line x1="820" y1="430" x2="917" y2="1726"/>
<line x1="820" y1="430" x2="345" y2="1640"/>
<line x1="820" y1="430" x2="-133" y2="1314"/>
<line x1="820" y1="430" x2="-422" y2="813"/>
<line x1="820" y1="430" x2="-465" y2="236"/>
<line x1="820" y1="430" x2="-254" y2="-303"/>
<line x1="820" y1="430" x2="170" y2="-696"/>
<line x1="820" y1="430" x2="723" y2="-866"/>
<line x1="820" y1="430" x2="1295" y2="-780"/>
<line x1="820" y1="430" x2="1773" y2="-454"/>
<line x1="820" y1="430" x2="2062" y2="47"/>
</g>
<g stroke="#aab2bf" stroke-width="3.2" fill="none" stroke-linecap="round">
<line x1="-100" y1="120" x2="1700" y2="640"/>
<line x1="-100" y1="780" x2="1700" y2="300"/>
<line x1="200" y1="-100" x2="1100" y2="1000"/>
<line x1="1450" y1="-100" x2="500" y2="1000"/>
<line x1="-100" y1="450" x2="1700" y2="470"/>
</g>
<g stroke="#bcc3ce" stroke-width="2.2" fill="none">
<ellipse cx="820" cy="430" rx="170" ry="133"/>
<ellipse cx="820" cy="430" rx="360" ry="281"/>
<ellipse cx="820" cy="430" rx="560" ry="437"/>
</g>
<g transform="translate(569,251)"><circle cx="0" cy="0" r="15" fill="#ffffff" stroke="#e2e5ea" stroke-width="1"/><rect x="-8" y="-1" width="17" height="9" rx="1.5" fill="#fa5252"/><path d="M-10,-1 L0,-10 L10,-1 Z" fill="#fa5252"/><rect x="-2" y="4" width="4" height="5" fill="#ffffff"/></g>
<g transform="translate(1163,615)"><circle cx="0" cy="0" r="15" fill="#ffffff" stroke="#e2e5ea" stroke-width="1"/><rect x="-8" y="-1" width="17" height="9" rx="1.5" fill="#14b8a6"/><path d="M-10,-1 L0,-10 L10,-1 Z" fill="#14b8a6"/><rect x="-2" y="4" width="4" height="5" fill="#ffffff"/></g>
<g transform="translate(306,158)"><circle cx="0" cy="0" r="15" fill="#ffffff" stroke="#e2e5ea" stroke-width="1"/><rect x="-8" y="-1" width="17" height="9" rx="1.5" fill="#fa5252"/><path d="M-10,-1 L0,-10 L10,-1 Z" fill="#fa5252"/><rect x="-2" y="4" width="4" height="5" fill="#ffffff"/></g>
<g transform="translate(1405,273)"><circle cx="0" cy="0" r="15" fill="#ffffff" stroke="#e2e5ea" stroke-width="1"/><rect x="-8" y="-1" width="17" height="9" rx="1.5" fill="#14b8a6"/><path d="M-10,-1 L0,-10 L10,-1 Z" fill="#14b8a6"/><rect x="-2" y="4" width="4" height="5" fill="#ffffff"/></g>
<g transform="translate(984,720)"><circle cx="0" cy="0" r="15" fill="#ffffff" stroke="#e2e5ea" stroke-width="1"/><rect x="-8" y="-1" width="17" height="9" rx="1.5" fill="#fa5252"/><path d="M-10,-1 L0,-10 L10,-1 Z" fill="#fa5252"/><rect x="-2" y="4" width="4" height="5" fill="#ffffff"/></g>
<g transform="translate(250,504)"><circle cx="0" cy="0" r="15" fill="#ffffff" stroke="#e2e5ea" stroke-width="1"/><rect x="-8" y="-1" width="17" height="9" rx="1.5" fill="#14b8a6"/><path d="M-10,-1 L0,-10 L10,-1 Z" fill="#14b8a6"/><rect x="-2" y="4" width="4" height="5" fill="#ffffff"/></g>
<g transform="translate(634,676)"><circle cx="0" cy="0" r="15" fill="#ffffff" stroke="#e2e5ea" stroke-width="1"/><rect x="-8" y="-1" width="17" height="9" rx="1.5" fill="#fa5252"/><path d="M-10,-1 L0,-10 L10,-1 Z" fill="#fa5252"/><rect x="-2" y="4" width="4" height="5" fill="#ffffff"/></g>
<g transform="translate(143,227)"><circle cx="0" cy="0" r="15" fill="#ffffff" stroke="#e2e5ea" stroke-width="1"/><rect x="-8" y="-1" width="17" height="9" rx="1.5" fill="#14b8a6"/><path d="M-10,-1 L0,-10 L10,-1 Z" fill="#14b8a6"/><rect x="-2" y="4" width="4" height="5" fill="#ffffff"/></g>
<g transform="translate(1219,383)"><circle cx="0" cy="0" r="15" fill="#ffffff" stroke="#e2e5ea" stroke-width="1"/><rect x="-8" y="-1" width="17" height="9" rx="1.5" fill="#fa5252"/><path d="M-10,-1 L0,-10 L10,-1 Z" fill="#fa5252"/><rect x="-2" y="4" width="4" height="5" fill="#ffffff"/></g>
<g transform="translate(1432,458)"><circle cx="0" cy="0" r="15" fill="#ffffff" stroke="#e2e5ea" stroke-width="1"/><rect x="-8" y="-1" width="17" height="9" rx="1.5" fill="#14b8a6"/><path d="M-10,-1 L0,-10 L10,-1 Z" fill="#14b8a6"/><rect x="-2" y="4" width="4" height="5" fill="#ffffff"/></g>
<g transform="translate(1010,271)"><circle cx="0" cy="0" r="15" fill="#ffffff" stroke="#e2e5ea" stroke-width="1"/><rect x="-8" y="-1" width="17" height="9" rx="1.5" fill="#fa5252"/><path d="M-10,-1 L0,-10 L10,-1 Z" fill="#fa5252"/><rect x="-2" y="4" width="4" height="5" fill="#ffffff"/></g>
<g transform="translate(1049,113)"><circle cx="0" cy="0" r="15" fill="#ffffff" stroke="#e2e5ea" stroke-width="1"/><rect x="-8" y="-1" width="17" height="9" rx="1.5" fill="#14b8a6"/><path d="M-10,-1 L0,-10 L10,-1 Z" fill="#14b8a6"/><rect x="-2" y="4" width="4" height="5" fill="#ffffff"/></g>
<g transform="translate(485,629)"><circle cx="0" cy="0" r="15" fill="#ffffff" stroke="#e2e5ea" stroke-width="1"/><rect x="-8" y="-1" width="17" height="9" rx="1.5" fill="#fa5252"/><path d="M-10,-1 L0,-10 L10,-1 Z" fill="#fa5252"/><rect x="-2" y="4" width="4" height="5" fill="#ffffff"/></g>
<g transform="translate(337,750)"><circle cx="0" cy="0" r="15" fill="#ffffff" stroke="#e2e5ea" stroke-width="1"/><rect x="-8" y="-1" width="17" height="9" rx="1.5" fill="#14b8a6"/><path d="M-10,-1 L0,-10 L10,-1 Z" fill="#14b8a6"/><rect x="-2" y="4" width="4" height="5" fill="#ffffff"/></g>
<g transform="translate(121,723)"><circle cx="0" cy="0" r="15" fill="#ffffff" stroke="#e2e5ea" stroke-width="1"/><rect x="-8" y="-1" width="17" height="9" rx="1.5" fill="#fa5252"/><path d="M-10,-1 L0,-10 L10,-1 Z" fill="#fa5252"/><rect x="-2" y="4" width="4" height="5" fill="#ffffff"/></g>
<g transform="translate(783,610)"><circle cx="0" cy="0" r="15" fill="#ffffff" stroke="#e2e5ea" stroke-width="1"/><rect x="-8" y="-1" width="17" height="9" rx="1.5" fill="#14b8a6"/><path d="M-10,-1 L0,-10 L10,-1 Z" fill="#14b8a6"/><rect x="-2" y="4" width="4" height="5" fill="#ffffff"/></g>
<g transform="translate(458,381)"><circle cx="0" cy="0" r="15" fill="#ffffff" stroke="#e2e5ea" stroke-width="1"/><rect x="-8" y="-1" width="17" height="9" rx="1.5" fill="#fa5252"/><path d="M-10,-1 L0,-10 L10,-1 Z" fill="#fa5252"/><rect x="-2" y="4" width="4" height="5" fill="#ffffff"/></g>
</svg>