<svg xmlns="http://www.w3.org/2000/svg" viewBox="0 0 48 48">
  <defs>
    <linearGradient id="g" x1="0" y1="0" x2="1" y2="1">
      <stop offset="0%" stop-color="#fa5252" />
      <stop offset="100%" stop-color="#fd7e14" />
    </linearGradient>
  </defs>
  <rect width="48" height="48" rx="12" fill="url(#g)" />
  <g transform="translate(4.5 4) scale(0.81)">
    <g fill="#ffffff">
      <circle cx="24" cy="14" r="12" />
      <path d="M21 24 h6 v8 h4 v3 h-4 v4 h3 v3 h-3 v3 h-6 z" />
    </g>
    <path fill="#fa5252" transform="translate(16.5 6.2) scale(0.62)"
      d="M12 21 C12 21 3 15 3 8.5 C3 5.4 5.5 3 8.5 3 C10.3 3 11.5 4 12 5 C12.5 4 13.7 3 15.5 3 C18.5 3 21 5.4 21 8.5 C21 15 12 21 12 21 Z" />
  </g>
</svg>
