<svg xmlns="http://www.w3.org/2000/svg" viewBox="0 0 48 48">
  <defs>
    <linearGradient id="g" x1="0" y1="0" x2="1" y2="1">
      <stop offset="0%" stop-color="#ff4d8d" />
      <stop offset="100%" stop-color="#8b5cf6" />
    </linearGradient>
  </defs>
  <rect width="48" height="48" rx="12" fill="url(#g)" />
  <g transform="translate(7.4 8) scale(0.68)">
    <g fill="#ffffff">
      <path d="M24 4 L45 22 a2.5 2.5 0 0 1 -1.6 4.4 H4.6 A2.5 2.5 0 0 1 3 22 Z" />
      <rect x="9" y="23" width="30" height="21" rx="6" />
    </g>
    <path fill="#ff4d8d" transform="translate(13.5 25.5) scale(0.86)"
      d="M11 19.5C11 19.5 1.5 14 1.5 7.6 1.5 4.5 3.9 2.2 6.9 2.2c1.8 0 3.4.9 4.1 2.3.7-1.4 2.3-2.3 4.1-2.3 3 0 5.4 2.3 5.4 5.4C20.5 14 11 19.5 11 19.5Z" />
  </g>
</svg>
